<svg width="2400" height="1600" viewBox="0 0 2400 1600" fill="none" xmlns="http://www.w3.org/2000/svg">
  <defs>
    <radialGradient id="bg" cx="0" cy="0" r="1" gradientUnits="userSpaceOnUse" gradientTransform="translate(1200 800) rotate(90) scale(900)">
      <stop offset="0" stop-color="#0f6b77"/>
      <stop offset="0.55" stop-color="#0b3140"/>
      <stop offset="1" stop-color="#081423"/>
    </radialGradient>
    <radialGradient id="core" cx="0" cy="0" r="1" gradientUnits="userSpaceOnUse" gradientTransform="translate(1200 800) rotate(90) scale(360)">
      <stop offset="0" stop-color="#f6d589" stop-opacity="0.95"/>
      <stop offset="1" stop-color="#f6d589" stop-opacity="0"/>
    </radialGradient>
    <g id="petal">
      <path d="M1200 260C1268 404 1268 596 1200 740C1132 596 1132 404 1200 260Z" fill="#f6d589" fill-opacity="0.16"/>
      <path d="M1200 360C1248 462 1248 538 1200 640C1152 538 1152 462 1200 360Z" fill="#65d7d3" fill-opacity="0.2"/>
    </g>
    <g id="ring-dot">
      <circle cx="1200" cy="180" r="10" fill="#f6d589" fill-opacity="0.42"/>
    </g>
  </defs>

  <rect width="2400" height="1600" fill="url(#bg)"/>

  <g opacity="0.9">
    <use href="#petal"/>
    <use href="#petal" transform="rotate(15 1200 800)"/>
    <use href="#petal" transform="rotate(30 1200 800)"/>
    <use href="#petal" transform="rotate(45 1200 800)"/>
    <use href="#petal" transform="rotate(60 1200 800)"/>
    <use href="#petal" transform="rotate(75 1200 800)"/>
    <use href="#petal" transform="rotate(90 1200 800)"/>
    <use href="#petal" transform="rotate(105 1200 800)"/>
    <use href="#petal" transform="rotate(120 1200 800)"/>
    <use href="#petal" transform="rotate(135 1200 800)"/>
    <use href="#petal" transform="rotate(150 1200 800)"/>
    <use href="#petal" transform="rotate(165 1200 800)"/>
  </g>

  <g>
    <circle cx="1200" cy="800" r="540" stroke="#65d7d3" stroke-opacity="0.22" stroke-width="2"/>
    <circle cx="1200" cy="800" r="430" stroke="#f6d589" stroke-opacity="0.28" stroke-width="2"/>
    <circle cx="1200" cy="800" r="320" stroke="#65d7d3" stroke-opacity="0.3" stroke-width="2"/>
    <circle cx="1200" cy="800" r="210" stroke="#f6d589" stroke-opacity="0.38" stroke-width="2"/>
  </g>

  <g>
    <use href="#ring-dot"/>
    <use href="#ring-dot" transform="rotate(20 1200 800)"/>
    <use href="#ring-dot" transform="rotate(40 1200 800)"/>
    <use href="#ring-dot" transform="rotate(60 1200 800)"/>
    <use href="#ring-dot" transform="rotate(80 1200 800)"/>
    <use href="#ring-dot" transform="rotate(100 1200 800)"/>
    <use href="#ring-dot" transform="rotate(120 1200 800)"/>
    <use href="#ring-dot" transform="rotate(140 1200 800)"/>
    <use href="#ring-dot" transform="rotate(160 1200 800)"/>
    <use href="#ring-dot" transform="rotate(180 1200 800)"/>
    <use href="#ring-dot" transform="rotate(200 1200 800)"/>
    <use href="#ring-dot" transform="rotate(220 1200 800)"/>
    <use href="#ring-dot" transform="rotate(240 1200 800)"/>
    <use href="#ring-dot" transform="rotate(260 1200 800)"/>
    <use href="#ring-dot" transform="rotate(280 1200 800)"/>
    <use href="#ring-dot" transform="rotate(300 1200 800)"/>
    <use href="#ring-dot" transform="rotate(320 1200 800)"/>
    <use href="#ring-dot" transform="rotate(340 1200 800)"/>
  </g>

  <circle cx="1200" cy="800" r="160" fill="url(#core)"/>
</svg>
