<svg width="2800" height="1800" viewBox="0 0 2800 1800" fill="none" xmlns="http://www.w3.org/2000/svg">
  <defs>
    <linearGradient id="g1" x1="0" y1="0" x2="2800" y2="1800" gradientUnits="userSpaceOnUse">
      <stop stop-color="#0b1f36"/>
      <stop offset="0.6" stop-color="#134a61"/>
      <stop offset="1" stop-color="#1f7f8e"/>
    </linearGradient>
    <g id="hex" opacity="0.42">
      <polygon points="1400,340 1640,480 1640,760 1400,900 1160,760 1160,480" stroke="#f6d589" stroke-width="2"/>
      <polygon points="1400,430 1560,520 1560,700 1400,790 1240,700 1240,520" stroke="#67d7d1" stroke-width="2"/>
    </g>
  </defs>

  <rect width="2800" height="1800" fill="url(#g1)"/>

  <g>
    <use href="#hex"/>
    <use href="#hex" transform="translate(-500 -260) scale(0.72)"/>
    <use href="#hex" transform="translate(520 -240) scale(0.7)"/>
    <use href="#hex" transform="translate(-650 260) scale(0.8)"/>
    <use href="#hex" transform="translate(660 280) scale(0.78)"/>
    <use href="#hex" transform="translate(-1040 120) scale(0.65)"/>
    <use href="#hex" transform="translate(1040 120) scale(0.65)"/>
  </g>

  <g opacity="0.3">
    <line x1="0" y1="900" x2="2800" y2="900" stroke="#6ed6cf" stroke-width="1"/>
    <line x1="1400" y1="0" x2="1400" y2="1800" stroke="#f6d589" stroke-width="1"/>
  </g>

  <circle cx="1400" cy="900" r="310" stroke="#f6d589" stroke-opacity="0.38" stroke-width="2"/>
  <circle cx="1400" cy="900" r="210" stroke="#67d7d1" stroke-opacity="0.44" stroke-width="2"/>
  <circle cx="1400" cy="900" r="95" fill="#f6d589" fill-opacity="0.28"/>
</svg>
